<svg xmlns="http://www.w3.org/2000/svg" viewBox="0 0 1600 1000" role="img" aria-label="Abstract brand growth signal artwork">
  <defs>
    <linearGradient id="bg" x1="0" x2="1" y1="0" y2="1">
      <stop offset="0" stop-color="#16130f"/>
      <stop offset=".42" stop-color="#272018"/>
      <stop offset="1" stop-color="#0d2e30"/>
    </linearGradient>
    <radialGradient id="gold" cx=".74" cy=".52" r=".42">
      <stop offset="0" stop-color="#f1cf78" stop-opacity=".88"/>
      <stop offset=".55" stop-color="#c99735" stop-opacity=".24"/>
      <stop offset="1" stop-color="#c99735" stop-opacity="0"/>
    </radialGradient>
    <radialGradient id="cyan" cx=".88" cy=".2" r=".36">
      <stop offset="0" stop-color="#15a6a6" stop-opacity=".72"/>
      <stop offset=".7" stop-color="#15a6a6" stop-opacity=".08"/>
      <stop offset="1" stop-color="#15a6a6" stop-opacity="0"/>
    </radialGradient>
    <filter id="soft">
      <feGaussianBlur stdDeviation="18"/>
    </filter>
  </defs>
  <rect width="1600" height="1000" fill="url(#bg)"/>
  <rect width="1600" height="1000" fill="url(#gold)"/>
  <rect width="1600" height="1000" fill="url(#cyan)"/>
  <g opacity=".15" stroke="#fffaf0" stroke-width="1">
    <path d="M0 760 C240 650 380 780 600 640 S960 390 1260 450 1490 290 1600 260" fill="none"/>
    <path d="M0 840 C300 700 420 860 700 700 S1110 480 1600 560" fill="none"/>
    <path d="M150 100 L1450 900"/>
    <path d="M330 70 L1600 630"/>
    <path d="M760 0 L1600 380"/>
  </g>
  <g transform="translate(785 230) rotate(-14)">
    <rect x="0" y="0" width="520" height="320" rx="28" fill="#fffaf0" opacity=".08"/>
    <rect x="34" y="40" width="190" height="20" rx="10" fill="#fffaf0" opacity=".58"/>
    <rect x="34" y="86" width="390" height="14" rx="7" fill="#15a6a6" opacity=".56"/>
    <rect x="34" y="124" width="310" height="14" rx="7" fill="#c99735" opacity=".7"/>
    <rect x="34" y="184" width="96" height="82" rx="16" fill="#af3431" opacity=".72"/>
    <rect x="154" y="156" width="96" height="110" rx="16" fill="#c99735" opacity=".72"/>
    <rect x="274" y="112" width="96" height="154" rx="16" fill="#15a6a6" opacity=".72"/>
    <rect x="394" y="72" width="96" height="194" rx="16" fill="#fffaf0" opacity=".5"/>
  </g>
  <g filter="url(#soft)" opacity=".55">
    <circle cx="1270" cy="710" r="120" fill="#c99735"/>
    <circle cx="1380" cy="455" r="88" fill="#15a6a6"/>
    <circle cx="1000" cy="760" r="76" fill="#af3431"/>
  </g>
  <g fill="none" stroke-linecap="round">
    <path d="M760 760 C870 650 910 530 1030 460 C1130 402 1250 386 1390 300" stroke="#fffaf0" stroke-width="20" opacity=".18"/>
    <path d="M790 804 C940 705 980 580 1100 508 C1210 440 1345 418 1505 320" stroke="#c99735" stroke-width="10" opacity=".9"/>
    <path d="M875 850 C1000 790 1090 694 1188 642 C1280 592 1388 584 1530 522" stroke="#15a6a6" stroke-width="8" opacity=".75"/>
  </g>
  <g fill="#fffaf0" opacity=".5">
    <circle cx="1040" cy="458" r="7"/>
    <circle cx="1210" cy="412" r="7"/>
    <circle cx="1390" cy="300" r="7"/>
    <circle cx="1505" cy="320" r="7"/>
  </g>
  <rect x="0" y="0" width="760" height="1000" fill="url(#bg)" opacity=".7"/>
</svg>
